<mxfile host="app.diagrams.net" modified="2023-10-15T14:23:44.506Z" agent="Mozilla/5.0 (Macintosh; Intel Mac OS X 10_15_7) AppleWebKit/537.36 (KHTML, like Gecko) Chrome/116.0.0.0 Safari/537.36" etag="OCCHcj3Eaxg4OSzP03Ow" version="21.6.6" type="github">
  <diagram name="第 1 页" id="utUc-n__VB2NTGtAP9ke">
    <mxGraphModel dx="2069" dy="1869" grid="1" gridSize="10" guides="1" tooltips="1" connect="1" arrows="1" fold="1" page="1" pageScale="1" pageWidth="827" pageHeight="1169" math="0" shadow="0">
      <root>
        <mxCell id="0" />
        <mxCell id="1" parent="0" />
        <mxCell id="e4pOWDgScwU9aIYQ1ptp-1" value="" style="html=1;verticalLabelPosition=bottom;align=center;labelBackgroundColor=#ffffff;verticalAlign=top;strokeWidth=2;strokeColor=#0080F0;shadow=0;dashed=0;shape=mxgraph.ios7.icons.home;" vertex="1" parent="1">
          <mxGeometry x="650" y="210" width="30" height="27.75" as="geometry" />
        </mxCell>
        <mxCell id="e4pOWDgScwU9aIYQ1ptp-5" style="edgeStyle=orthogonalEdgeStyle;rounded=0;orthogonalLoop=1;jettySize=auto;html=1;curved=1;" edge="1" parent="1" source="e4pOWDgScwU9aIYQ1ptp-2">
          <mxGeometry relative="1" as="geometry">
            <mxPoint x="160" y="200" as="targetPoint" />
          </mxGeometry>
        </mxCell>
        <mxCell id="e4pOWDgScwU9aIYQ1ptp-16" style="edgeStyle=orthogonalEdgeStyle;rounded=0;orthogonalLoop=1;jettySize=auto;html=1;curved=1;" edge="1" parent="1" source="e4pOWDgScwU9aIYQ1ptp-2" target="e4pOWDgScwU9aIYQ1ptp-12">
          <mxGeometry relative="1" as="geometry" />
        </mxCell>
        <mxCell id="e4pOWDgScwU9aIYQ1ptp-2" value="ZF" style="shape=mxgraph.cisco.buildings.telecommuter_house;html=1;pointerEvents=1;dashed=0;fillColor=#036897;strokeColor=#ffffff;strokeWidth=2;verticalLabelPosition=bottom;verticalAlign=top;align=center;outlineConnect=0;" vertex="1" parent="1">
          <mxGeometry x="420" y="-80" width="104" height="88" as="geometry" />
        </mxCell>
        <mxCell id="e4pOWDgScwU9aIYQ1ptp-9" value="企业" style="editableCssRules=.*;html=1;shape=image;verticalLabelPosition=bottom;labelBackgroundColor=#ffffff;verticalAlign=top;aspect=fixed;imageAspect=0;image=data:image/svg+xml,PHN2ZyB4bWxucz0iaHR0cDovL3d3dy53My5vcmcvMjAwMC9zdmciIHhtbG5zOnY9Imh0dHBzOi8vdmVjdGEuaW8vbmFubyIgd2lkdGg9IjIwIiBoZWlnaHQ9IjE1IiB2aWV3Qm94PSIwIDAgMjAgMTUiPiYjeGE7CTxzdHlsZSB0eXBlPSJ0ZXh0L2NzcyI+JiN4YTsJLnN0MHtmaWxsOiM0Mjg1ZjQ7fSYjeGE7CTwvc3R5bGU+JiN4YTsJPHBhdGggY2xhc3M9InN0MCIgZD0iTTMgN2gxNGwtNy03em0xNS41IDJoLTFhMS40NCAxLjQ0IDAgMCAwLS43NS4yMkExLjQ0IDEuNDQgMCAwIDAgMTYgOWgtMWExLjU0IDEuNTQgMCAwIDAtMS41IDEuNVYxNUgxNXYtNC41aDFWMTVoMS41di00LjVoMVYxNUgyMHYtNC41QTEuNTQgMS41NCAwIDAgMCAxOC41IDl6TTUgOUg0YTEuNDQgMS40NCAwIDAgMC0uNzUuMjJBMS40NCAxLjQ0IDAgMCAwIDIuNSA5aC0xQTEuNTQgMS41NCAwIDAgMCAwIDEwLjVWMTVoMS41di00LjVoMVYxNUg0di00LjVoMVYxNWgxLjV2LTQuNUExLjU0IDEuNTQgMCAwIDAgNSA5em0yLjUgMHY2aDV2LTEuNUg5di0uNzVoMi41di0xLjVIOXYtLjc1aDMuNVY5eiIvPiYjeGE7PC9zdmc+;" vertex="1" parent="1">
          <mxGeometry x="140" y="205" width="40" height="30" as="geometry" />
        </mxCell>
        <mxCell id="e4pOWDgScwU9aIYQ1ptp-12" value="FKS" style="shape=mxgraph.cisco.misc.h_323;html=1;pointerEvents=1;dashed=0;fillColor=#036897;strokeColor=#ffffff;strokeWidth=2;verticalLabelPosition=bottom;verticalAlign=top;align=center;outlineConnect=0;" vertex="1" parent="1">
          <mxGeometry x="780" y="194.5" width="51" height="51" as="geometry" />
        </mxCell>
        <mxCell id="e4pOWDgScwU9aIYQ1ptp-13" value="银行" style="shape=mxgraph.cisco.buildings.telecommuter_house_pc;html=1;pointerEvents=1;dashed=0;fillColor=#036897;strokeColor=#ffffff;strokeWidth=2;verticalLabelPosition=bottom;verticalAlign=top;align=center;outlineConnect=0;" vertex="1" parent="1">
          <mxGeometry x="600" y="60" width="70" height="60" as="geometry" />
        </mxCell>
        <mxCell id="e4pOWDgScwU9aIYQ1ptp-14" value="基础设施" style="shape=process;whiteSpace=wrap;html=1;backgroundOutline=1;" vertex="1" parent="1">
          <mxGeometry x="190" y="164.5" width="370" height="30" as="geometry" />
        </mxCell>
        <mxCell id="e4pOWDgScwU9aIYQ1ptp-23" style="edgeStyle=orthogonalEdgeStyle;rounded=0;orthogonalLoop=1;jettySize=auto;html=1;" edge="1" parent="1" source="e4pOWDgScwU9aIYQ1ptp-15" target="e4pOWDgScwU9aIYQ1ptp-22">
          <mxGeometry relative="1" as="geometry" />
        </mxCell>
        <mxCell id="e4pOWDgScwU9aIYQ1ptp-15" value="" style="html=1;verticalLabelPosition=bottom;align=center;labelBackgroundColor=#ffffff;verticalAlign=top;strokeWidth=2;strokeColor=#0080F0;shadow=0;dashed=0;shape=mxgraph.ios7.icons.home;" vertex="1" parent="1">
          <mxGeometry x="660" y="212.25" width="30" height="27.75" as="geometry" />
        </mxCell>
        <mxCell id="e4pOWDgScwU9aIYQ1ptp-17" value="住宅用地" style="rounded=1;whiteSpace=wrap;html=1;" vertex="1" parent="1">
          <mxGeometry x="690" y="206.13" width="80" height="40" as="geometry" />
        </mxCell>
        <mxCell id="e4pOWDgScwU9aIYQ1ptp-19" value="工业用地" style="rounded=1;whiteSpace=wrap;html=1;" vertex="1" parent="1">
          <mxGeometry x="190" y="203.88" width="80" height="40" as="geometry" />
        </mxCell>
        <mxCell id="e4pOWDgScwU9aIYQ1ptp-22" value="购房人" style="shape=umlActor;verticalLabelPosition=bottom;verticalAlign=top;html=1;outlineConnect=0;" vertex="1" parent="1">
          <mxGeometry x="570" y="201.13" width="30" height="50" as="geometry" />
        </mxCell>
        <mxCell id="e4pOWDgScwU9aIYQ1ptp-24" value="低价供应" style="text;html=1;align=center;verticalAlign=middle;resizable=0;points=[];autosize=1;strokeColor=none;fillColor=none;" vertex="1" parent="1">
          <mxGeometry x="185" y="8" width="70" height="30" as="geometry" />
        </mxCell>
        <mxCell id="e4pOWDgScwU9aIYQ1ptp-25" value="高价供应" style="text;html=1;align=center;verticalAlign=middle;resizable=0;points=[];autosize=1;strokeColor=none;fillColor=none;" vertex="1" parent="1">
          <mxGeometry x="710" y="8" width="70" height="30" as="geometry" />
        </mxCell>
        <mxCell id="e4pOWDgScwU9aIYQ1ptp-26" value="土地使用权流转" style="text;html=1;strokeColor=none;fillColor=none;align=center;verticalAlign=middle;whiteSpace=wrap;rounded=0;fontStyle=1" vertex="1" parent="1">
          <mxGeometry x="-20" y="110" width="70" height="30" as="geometry" />
        </mxCell>
        <mxCell id="e4pOWDgScwU9aIYQ1ptp-27" value="资金流转" style="text;html=1;strokeColor=none;fillColor=none;align=center;verticalAlign=middle;whiteSpace=wrap;rounded=0;fontStyle=1" vertex="1" parent="1">
          <mxGeometry x="-20" y="430" width="70" height="30" as="geometry" />
        </mxCell>
        <mxCell id="e4pOWDgScwU9aIYQ1ptp-28" value="" style="endArrow=none;html=1;rounded=0;" edge="1" parent="1">
          <mxGeometry width="50" height="50" relative="1" as="geometry">
            <mxPoint y="330" as="sourcePoint" />
            <mxPoint x="880" y="330" as="targetPoint" />
          </mxGeometry>
        </mxCell>
        <mxCell id="e4pOWDgScwU9aIYQ1ptp-30" style="edgeStyle=orthogonalEdgeStyle;rounded=0;orthogonalLoop=1;jettySize=auto;html=1;curved=1;startArrow=classic;startFill=1;endArrow=none;endFill=0;" edge="1" parent="1" source="e4pOWDgScwU9aIYQ1ptp-32">
          <mxGeometry relative="1" as="geometry">
            <mxPoint x="160" y="680" as="targetPoint" />
          </mxGeometry>
        </mxCell>
        <mxCell id="e4pOWDgScwU9aIYQ1ptp-31" style="edgeStyle=orthogonalEdgeStyle;rounded=0;orthogonalLoop=1;jettySize=auto;html=1;curved=1;startArrow=classic;startFill=1;endArrow=none;endFill=0;" edge="1" parent="1" source="e4pOWDgScwU9aIYQ1ptp-32" target="e4pOWDgScwU9aIYQ1ptp-34">
          <mxGeometry relative="1" as="geometry" />
        </mxCell>
        <mxCell id="e4pOWDgScwU9aIYQ1ptp-44" style="edgeStyle=orthogonalEdgeStyle;rounded=0;orthogonalLoop=1;jettySize=auto;html=1;entryX=0.5;entryY=0;entryDx=0;entryDy=0;" edge="1" parent="1" source="e4pOWDgScwU9aIYQ1ptp-32" target="e4pOWDgScwU9aIYQ1ptp-36">
          <mxGeometry relative="1" as="geometry" />
        </mxCell>
        <mxCell id="e4pOWDgScwU9aIYQ1ptp-55" value="基建成本" style="edgeLabel;html=1;align=center;verticalAlign=middle;resizable=0;points=[];" vertex="1" connectable="0" parent="e4pOWDgScwU9aIYQ1ptp-44">
          <mxGeometry x="0.0282" y="1" relative="1" as="geometry">
            <mxPoint as="offset" />
          </mxGeometry>
        </mxCell>
        <mxCell id="e4pOWDgScwU9aIYQ1ptp-32" value="ZF" style="shape=mxgraph.cisco.buildings.telecommuter_house;html=1;pointerEvents=1;dashed=0;fillColor=#036897;strokeColor=#ffffff;strokeWidth=2;verticalLabelPosition=bottom;verticalAlign=top;align=center;outlineConnect=0;" vertex="1" parent="1">
          <mxGeometry x="420" y="400" width="104" height="88" as="geometry" />
        </mxCell>
        <mxCell id="e4pOWDgScwU9aIYQ1ptp-33" value="企业" style="editableCssRules=.*;html=1;shape=image;verticalLabelPosition=bottom;labelBackgroundColor=#ffffff;verticalAlign=top;aspect=fixed;imageAspect=0;image=data:image/svg+xml,PHN2ZyB4bWxucz0iaHR0cDovL3d3dy53My5vcmcvMjAwMC9zdmciIHhtbG5zOnY9Imh0dHBzOi8vdmVjdGEuaW8vbmFubyIgd2lkdGg9IjIwIiBoZWlnaHQ9IjE1IiB2aWV3Qm94PSIwIDAgMjAgMTUiPiYjeGE7CTxzdHlsZSB0eXBlPSJ0ZXh0L2NzcyI+JiN4YTsJLnN0MHtmaWxsOiM0Mjg1ZjQ7fSYjeGE7CTwvc3R5bGU+JiN4YTsJPHBhdGggY2xhc3M9InN0MCIgZD0iTTMgN2gxNGwtNy03em0xNS41IDJoLTFhMS40NCAxLjQ0IDAgMCAwLS43NS4yMkExLjQ0IDEuNDQgMCAwIDAgMTYgOWgtMWExLjU0IDEuNTQgMCAwIDAtMS41IDEuNVYxNUgxNXYtNC41aDFWMTVoMS41di00LjVoMVYxNUgyMHYtNC41QTEuNTQgMS41NCAwIDAgMCAxOC41IDl6TTUgOUg0YTEuNDQgMS40NCAwIDAgMC0uNzUuMjJBMS40NCAxLjQ0IDAgMCAwIDIuNSA5aC0xQTEuNTQgMS41NCAwIDAgMCAwIDEwLjVWMTVoMS41di00LjVoMVYxNUg0di00LjVoMVYxNWgxLjV2LTQuNUExLjU0IDEuNTQgMCAwIDAgNSA5em0yLjUgMHY2aDV2LTEuNUg5di0uNzVoMi41di0xLjVIOXYtLjc1aDMuNVY5eiIvPiYjeGE7PC9zdmc+;" vertex="1" parent="1">
          <mxGeometry x="140" y="685" width="40" height="30" as="geometry" />
        </mxCell>
        <mxCell id="e4pOWDgScwU9aIYQ1ptp-53" style="edgeStyle=orthogonalEdgeStyle;rounded=0;orthogonalLoop=1;jettySize=auto;html=1;curved=1;" edge="1" parent="1" source="e4pOWDgScwU9aIYQ1ptp-34" target="e4pOWDgScwU9aIYQ1ptp-35">
          <mxGeometry relative="1" as="geometry">
            <Array as="points">
              <mxPoint x="806" y="580" />
            </Array>
          </mxGeometry>
        </mxCell>
        <mxCell id="e4pOWDgScwU9aIYQ1ptp-54" value="贷款利息" style="edgeLabel;html=1;align=center;verticalAlign=middle;resizable=0;points=[];" vertex="1" connectable="0" parent="e4pOWDgScwU9aIYQ1ptp-53">
          <mxGeometry x="0.4957" y="6" relative="1" as="geometry">
            <mxPoint as="offset" />
          </mxGeometry>
        </mxCell>
        <mxCell id="e4pOWDgScwU9aIYQ1ptp-34" value="FKS" style="shape=mxgraph.cisco.misc.h_323;html=1;pointerEvents=1;dashed=0;fillColor=#036897;strokeColor=#ffffff;strokeWidth=2;verticalLabelPosition=bottom;verticalAlign=top;align=center;outlineConnect=0;" vertex="1" parent="1">
          <mxGeometry x="780" y="674.5" width="51" height="51" as="geometry" />
        </mxCell>
        <mxCell id="e4pOWDgScwU9aIYQ1ptp-35" value="银行" style="shape=mxgraph.cisco.buildings.telecommuter_house_pc;html=1;pointerEvents=1;dashed=0;fillColor=#036897;strokeColor=#ffffff;strokeWidth=2;verticalLabelPosition=bottom;verticalAlign=top;align=center;outlineConnect=0;" vertex="1" parent="1">
          <mxGeometry x="600" y="540" width="70" height="60" as="geometry" />
        </mxCell>
        <mxCell id="e4pOWDgScwU9aIYQ1ptp-36" value="基础设施" style="shape=process;whiteSpace=wrap;html=1;backgroundOutline=1;" vertex="1" parent="1">
          <mxGeometry x="382" y="630" width="180" height="30" as="geometry" />
        </mxCell>
        <mxCell id="e4pOWDgScwU9aIYQ1ptp-45" style="edgeStyle=orthogonalEdgeStyle;rounded=0;orthogonalLoop=1;jettySize=auto;html=1;" edge="1" parent="1" source="e4pOWDgScwU9aIYQ1ptp-40">
          <mxGeometry relative="1" as="geometry">
            <mxPoint x="610" y="704" as="targetPoint" />
          </mxGeometry>
        </mxCell>
        <mxCell id="e4pOWDgScwU9aIYQ1ptp-51" value="劳动报酬" style="edgeLabel;html=1;align=center;verticalAlign=middle;resizable=0;points=[];" vertex="1" connectable="0" parent="e4pOWDgScwU9aIYQ1ptp-45">
          <mxGeometry x="-0.0775" y="2" relative="1" as="geometry">
            <mxPoint as="offset" />
          </mxGeometry>
        </mxCell>
        <mxCell id="e4pOWDgScwU9aIYQ1ptp-40" value="工业用地" style="rounded=1;whiteSpace=wrap;html=1;" vertex="1" parent="1">
          <mxGeometry x="190" y="683.88" width="80" height="40" as="geometry" />
        </mxCell>
        <mxCell id="e4pOWDgScwU9aIYQ1ptp-46" style="edgeStyle=orthogonalEdgeStyle;rounded=0;orthogonalLoop=1;jettySize=auto;html=1;entryX=-0.02;entryY=0.696;entryDx=0;entryDy=0;entryPerimeter=0;" edge="1" parent="1" source="e4pOWDgScwU9aIYQ1ptp-41" target="e4pOWDgScwU9aIYQ1ptp-34">
          <mxGeometry relative="1" as="geometry">
            <mxPoint x="754.0100000000002" y="709.2707500000001" as="targetPoint" />
          </mxGeometry>
        </mxCell>
        <mxCell id="e4pOWDgScwU9aIYQ1ptp-58" value="购房款" style="edgeLabel;html=1;align=center;verticalAlign=middle;resizable=0;points=[];" vertex="1" connectable="0" parent="e4pOWDgScwU9aIYQ1ptp-46">
          <mxGeometry x="0.0317" relative="1" as="geometry">
            <mxPoint as="offset" />
          </mxGeometry>
        </mxCell>
        <mxCell id="e4pOWDgScwU9aIYQ1ptp-47" style="edgeStyle=orthogonalEdgeStyle;rounded=0;orthogonalLoop=1;jettySize=auto;html=1;" edge="1" parent="1" source="e4pOWDgScwU9aIYQ1ptp-41" target="e4pOWDgScwU9aIYQ1ptp-35">
          <mxGeometry relative="1" as="geometry">
            <Array as="points">
              <mxPoint x="635" y="670" />
              <mxPoint x="635" y="670" />
            </Array>
          </mxGeometry>
        </mxCell>
        <mxCell id="e4pOWDgScwU9aIYQ1ptp-41" value="购房人" style="shape=umlActor;verticalLabelPosition=bottom;verticalAlign=top;html=1;outlineConnect=0;" vertex="1" parent="1">
          <mxGeometry x="620" y="683.88" width="30" height="50" as="geometry" />
        </mxCell>
        <mxCell id="e4pOWDgScwU9aIYQ1ptp-42" value="土拍成本" style="text;html=1;align=center;verticalAlign=middle;resizable=0;points=[];autosize=1;strokeColor=none;fillColor=none;" vertex="1" parent="1">
          <mxGeometry x="185" y="488" width="70" height="30" as="geometry" />
        </mxCell>
        <mxCell id="e4pOWDgScwU9aIYQ1ptp-43" value="土拍成本" style="text;html=1;align=center;verticalAlign=middle;resizable=0;points=[];autosize=1;strokeColor=none;fillColor=none;" vertex="1" parent="1">
          <mxGeometry x="710" y="488" width="70" height="30" as="geometry" />
        </mxCell>
        <mxCell id="e4pOWDgScwU9aIYQ1ptp-56" value="" style="html=1;verticalLabelPosition=bottom;align=center;labelBackgroundColor=#ffffff;verticalAlign=top;strokeWidth=2;strokeColor=#0080F0;shadow=0;dashed=0;shape=mxgraph.ios7.icons.home;" vertex="1" parent="1">
          <mxGeometry x="550" y="631.12" width="30" height="27.75" as="geometry" />
        </mxCell>
        <mxCell id="e4pOWDgScwU9aIYQ1ptp-57" value="" style="html=1;verticalLabelPosition=bottom;align=center;labelBackgroundColor=#ffffff;verticalAlign=top;strokeWidth=2;strokeColor=#0080F0;shadow=0;dashed=0;shape=mxgraph.ios7.icons.home;" vertex="1" parent="1">
          <mxGeometry x="560" y="632.25" width="30" height="27.75" as="geometry" />
        </mxCell>
      </root>
    </mxGraphModel>
  </diagram>
</mxfile>
